<svg width="287" height="102" viewBox="0 0 287 102" fill="none" xmlns="http://www.w3.org/2000/svg">
<g clip-path="url(#clip0_2453_5)">
<path d="M27.928 66.512C22.2533 66.512 17.7093 65.4453 14.296 63.312C10.8827 61.136 9.176 57.8293 9.176 53.392C9.176 51.0453 9.58133 49.2533 10.392 48.016C11.2027 46.7787 12.3973 46.16 13.976 46.16C15.128 46.16 16.0667 46.4587 16.792 47.056C17.5173 47.6533 17.88 48.4213 17.88 49.36C17.88 50.2133 17.816 50.96 17.688 51.6C17.688 51.7707 17.6453 52.0693 17.56 52.496C17.5173 52.9227 17.496 53.3707 17.496 53.84C17.496 55.76 18.456 57.1893 20.376 58.128C22.3387 59.0667 25.0693 59.536 28.568 59.536C32.1947 59.536 35.032 58.896 37.08 57.616C39.128 56.2933 40.152 54.4587 40.152 52.112C40.152 50.6613 39.6827 49.424 38.744 48.4C37.8053 47.3333 36.632 46.4587 35.224 45.776C33.816 45.0507 31.832 44.176 29.272 43.152C25.9867 41.872 23.2987 40.656 21.208 39.504C19.16 38.352 17.3893 36.7947 15.896 34.832C14.4453 32.8267 13.72 30.352 13.72 27.408C13.72 24.336 14.5307 21.6053 16.152 19.216C17.816 16.8267 20.184 14.9707 23.256 13.648C26.3707 12.3253 30.0187 11.664 34.2 11.664C37.3147 11.664 40.1733 12.1333 42.776 13.072C45.3787 13.968 47.448 15.3547 48.984 17.232C50.5627 19.1093 51.352 21.4133 51.352 24.144C51.352 26.832 50.9467 28.8587 50.136 30.224C49.3253 31.5893 48.1307 32.272 46.552 32.272C45.4427 32.272 44.504 31.9307 43.736 31.248C43.0107 30.5653 42.648 29.7547 42.648 28.816C42.648 28.0053 42.712 27.2587 42.84 26.576C42.968 25.296 43.032 24.4853 43.032 24.144C43.032 22.352 42.1573 20.9867 40.408 20.048C38.6587 19.1093 36.4827 18.64 33.88 18.64C30.2107 18.64 27.3947 19.3227 25.432 20.688C23.512 22.0107 22.552 23.888 22.552 26.32C22.552 27.9413 23.0427 29.328 24.024 30.48C25.048 31.632 26.3067 32.592 27.8 33.36C29.2933 34.128 31.384 35.0453 34.072 36.112C37.3147 37.4347 39.9173 38.6293 41.88 39.696C43.8427 40.7627 45.5067 42.2133 46.872 44.048C48.28 45.8827 48.984 48.144 48.984 50.832C48.984 55.8667 47.064 59.7493 43.224 62.48C39.4267 65.168 34.328 66.512 27.928 66.512ZM58.6785 66.32C57.0572 66.32 55.9052 65.4667 55.2225 63.76C54.5825 62.0533 54.2625 59.3227 54.2625 55.568C54.2625 50.0213 55.0518 44.752 56.6305 39.76C57.0145 38.5227 57.6332 37.6267 58.4865 37.072C59.3825 36.4747 60.6198 36.176 62.1985 36.176C63.0518 36.176 63.6492 36.2827 63.9905 36.496C64.3318 36.7093 64.5025 37.1147 64.5025 37.712C64.5025 38.3947 64.1825 39.9307 63.5425 42.32C63.1158 44.0267 62.7745 45.52 62.5185 46.8C62.2625 48.08 62.0492 49.6587 61.8785 51.536C63.2865 47.8667 64.8652 44.88 66.6145 42.576C68.3638 40.272 70.0705 38.6293 71.7345 37.648C73.4412 36.6667 74.9985 36.176 76.4065 36.176C79.1798 36.176 80.5665 37.5627 80.5665 40.336C80.5665 42 80.0972 45.008 79.1585 49.36C78.3478 53.072 77.9425 55.5253 77.9425 56.72C77.9425 58.4267 78.5612 59.28 79.7985 59.28C80.6518 59.28 81.6545 58.768 82.8065 57.744C84.0012 56.6773 85.5798 54.9707 87.5425 52.624C88.0545 52.0267 88.6305 51.728 89.2705 51.728C89.8252 51.728 90.2518 51.984 90.5505 52.496C90.8918 53.008 91.0625 53.712 91.0625 54.608C91.0625 56.3147 90.6572 57.6373 89.8465 58.576C88.0118 60.8373 86.0278 62.6933 83.8945 64.144C81.8038 65.5947 79.4145 66.32 76.7265 66.32C74.5505 66.32 72.9078 65.7013 71.7985 64.464C70.6892 63.184 70.1345 61.3493 70.1345 58.96C70.1345 57.7653 70.4332 55.632 71.0305 52.56C71.5852 49.872 71.8625 48.016 71.8625 46.992C71.8625 46.3093 71.6278 45.968 71.1585 45.968C70.6038 45.968 69.8145 46.6933 68.7905 48.144C67.8092 49.552 66.7852 51.4293 65.7185 53.776C64.6945 56.1227 63.8625 58.5973 63.2225 61.2C62.7532 63.2053 62.1985 64.5707 61.5585 65.296C60.9612 65.9787 60.0012 66.32 58.6785 66.32ZM93.7565 66.32C91.1112 66.32 88.9992 65.36 87.4205 63.44C85.8418 61.52 85.0525 59.0027 85.0525 55.888C85.0525 52.4747 85.8418 49.2533 87.4205 46.224C88.9992 43.152 91.0898 40.6987 93.6925 38.864C96.3378 36.9867 99.1325 36.048 102.077 36.048C103.015 36.048 103.634 36.24 103.933 36.624C104.274 36.9653 104.551 37.6053 104.765 38.544C105.661 38.3733 106.599 38.288 107.581 38.288C109.671 38.288 110.717 39.0347 110.717 40.528C110.717 41.424 110.397 43.5573 109.757 46.928C108.775 51.8347 108.285 55.248 108.285 57.168C108.285 57.808 108.434 58.32 108.733 58.704C109.074 59.088 109.501 59.28 110.013 59.28C110.823 59.28 111.805 58.768 112.957 57.744C114.109 56.6773 115.666 54.9707 117.629 52.624C118.141 52.0267 118.717 51.728 119.357 51.728C119.911 51.728 120.338 51.984 120.637 52.496C120.978 53.008 121.149 53.712 121.149 54.608C121.149 56.3147 120.743 57.6373 119.933 58.576C118.183 60.752 116.327 62.5867 114.365 64.08C112.402 65.5733 110.503 66.32 108.669 66.32C107.261 66.32 105.959 65.8507 104.765 64.912C103.613 63.9307 102.738 62.608 102.141 60.944C99.9218 64.528 97.1272 66.32 93.7565 66.32ZM96.0605 59.856C96.9992 59.856 97.8952 59.3013 98.7485 58.192C99.6018 57.0827 100.221 55.6107 100.605 53.776L102.973 42C101.181 42.0427 99.5165 42.7253 97.9805 44.048C96.4872 45.328 95.2925 47.0347 94.3965 49.168C93.5005 51.3013 93.0525 53.5627 93.0525 55.952C93.0525 57.2747 93.3085 58.256 93.8205 58.896C94.3752 59.536 95.1218 59.856 96.0605 59.856ZM150.123 51.728C150.678 51.728 151.104 51.984 151.403 52.496C151.744 53.008 151.915 53.712 151.915 54.608C151.915 56.3147 151.51 57.6373 150.699 58.576C148.864 60.8373 146.88 62.6933 144.747 64.144C142.656 65.5947 140.267 66.32 137.579 66.32C135.318 66.32 133.483 65.5093 132.075 63.888C129.643 65.4667 127.104 66.2773 124.459 66.32C123.904 74.5547 122.646 81.424 120.683 86.928C118.72 92.4747 115.84 95.248 112.043 95.248C109.739 95.248 108.032 94.416 106.923 92.752C105.814 91.088 105.259 88.784 105.259 85.84C105.259 81.6587 106.219 76.7733 108.139 71.184C110.059 65.6373 113.024 59.5147 117.035 52.816C117.035 46.5867 116.992 42.256 116.907 39.824C116.864 38.5867 117.355 37.6053 118.379 36.88C119.403 36.1547 120.683 35.792 122.219 35.792C123.115 35.792 123.755 35.984 124.139 36.368C124.566 36.7093 124.8 37.4133 124.843 38.48C124.843 39.5467 124.864 40.336 124.907 40.848C126.272 39.1413 127.616 37.9253 128.939 37.2C130.262 36.432 131.67 36.048 133.163 36.048C135.552 36.048 137.494 37.008 138.987 38.928C140.523 40.848 141.291 43.3653 141.291 46.48C141.291 48.7413 140.928 50.9387 140.203 53.072C139.478 55.2053 138.475 57.1467 137.195 58.896C138.091 59.152 138.838 59.28 139.435 59.28C140.843 59.28 142.187 58.768 143.467 57.744C144.747 56.72 146.39 55.0133 148.395 52.624C148.907 52.0267 149.483 51.728 150.123 51.728ZM124.779 60.176C126.315 59.8347 127.723 59.0027 129.003 57.68C130.326 56.3147 131.371 54.6507 132.139 52.688C132.907 50.6827 133.291 48.592 133.291 46.416C133.291 45.136 133.035 44.176 132.523 43.536C132.011 42.8533 131.328 42.512 130.475 42.512C128.939 42.512 127.083 44.1333 124.907 47.376C124.864 49.2533 124.843 52.0053 124.843 55.632C124.843 57.5947 124.822 59.1093 124.779 60.176ZM112.555 88.976C113.707 88.976 114.667 86.4587 115.435 81.424C116.203 76.432 116.694 70.2027 116.907 62.736C115.072 67.0027 113.622 71.0773 112.555 74.96C111.488 78.8427 110.955 82.1067 110.955 84.752C110.955 86.1173 111.126 87.1627 111.467 87.888C111.766 88.6133 112.128 88.976 112.555 88.976ZM179.528 51.856C180.082 51.856 180.509 52.1333 180.808 52.688C181.149 53.2 181.319 53.8613 181.319 54.672C181.319 55.6533 181.17 56.4213 180.872 56.976C180.573 57.5307 180.104 58.0213 179.464 58.448C175.794 60.9227 173.106 62.7573 171.4 63.952L167.304 66.704C165.682 75.536 163.549 82.4693 160.904 87.504C158.301 92.5813 154.973 95.12 150.92 95.12C148.744 95.12 146.973 94.4373 145.608 93.072C144.242 91.7493 143.559 90 143.559 87.824C143.559 84.7947 144.754 81.5307 147.144 78.032C149.533 74.576 154.013 70.3093 160.583 65.232L160.968 62.736C160.242 63.888 159.282 64.784 158.088 65.424C156.936 66.0213 155.784 66.32 154.632 66.32C151.986 66.32 149.874 65.36 148.296 63.44C146.717 61.52 145.928 59.0027 145.928 55.888C145.928 52.4747 146.717 49.2533 148.296 46.224C149.874 43.152 151.965 40.6987 154.568 38.864C157.213 36.9867 160.008 36.048 162.952 36.048C163.89 36.048 164.509 36.24 164.808 36.624C165.149 36.9653 165.426 37.6053 165.64 38.544C166.45 38.3733 167.389 38.288 168.456 38.288C169.522 38.288 170.269 38.4587 170.696 38.8C171.165 39.0987 171.4 39.7173 171.4 40.656C171.4 41.168 171.378 41.5733 171.336 41.872C171.165 43.1947 170.632 46.544 169.736 51.92C169.565 52.944 169.373 54.0747 169.16 55.312C168.989 56.5067 168.797 57.7867 168.584 59.152C171.869 56.592 175.026 54.3307 178.056 52.368C178.61 52.0267 179.101 51.856 179.528 51.856ZM156.936 59.856C157.917 59.856 158.856 59.2587 159.752 58.064C160.648 56.8693 161.288 55.1627 161.672 52.944L163.72 42C161.97 42.0427 160.349 42.7253 158.856 44.048C157.362 45.328 156.168 47.0347 155.272 49.168C154.376 51.3013 153.928 53.5627 153.928 55.952C153.928 57.2747 154.184 58.256 154.696 58.896C155.25 59.536 155.997 59.856 156.936 59.856ZM151.624 88.912C152.69 88.912 153.885 87.632 155.208 85.072C156.573 82.512 157.874 78.4373 159.112 72.848C155.826 75.664 153.458 78.2027 152.008 80.464C150.557 82.7253 149.832 84.7093 149.832 86.416C149.832 87.1413 149.96 87.7387 150.216 88.208C150.514 88.6773 150.984 88.912 151.624 88.912ZM181.241 66.32C179.62 66.32 178.468 65.4667 177.785 63.76C177.145 62.0533 176.825 59.3227 176.825 55.568C176.825 50.0213 177.614 44.752 179.193 39.76C179.577 38.5227 180.196 37.6267 181.049 37.072C181.945 36.4747 183.182 36.176 184.761 36.176C185.614 36.176 186.212 36.2827 186.553 36.496C186.894 36.7093 187.065 37.1147 187.065 37.712C187.065 38.3947 186.745 39.9307 186.105 42.32C185.678 44.0267 185.337 45.52 185.081 46.8C184.825 48.08 184.612 49.6587 184.441 51.536C185.849 47.8667 187.428 44.88 189.177 42.576C190.926 40.272 192.633 38.6293 194.297 37.648C196.004 36.6667 197.561 36.176 198.969 36.176C201.742 36.176 203.129 37.5627 203.129 40.336C203.129 40.8907 202.937 42.2347 202.553 44.368C202.212 46.0747 202.041 47.1413 202.041 47.568C202.041 49.0613 202.574 49.808 203.641 49.808C204.836 49.808 206.372 48.8693 208.249 46.992C208.804 46.4373 209.38 46.16 209.977 46.16C210.532 46.16 210.958 46.416 211.257 46.928C211.598 47.3973 211.769 48.0373 211.769 48.848C211.769 50.4267 211.342 51.664 210.489 52.56C209.294 53.7973 207.886 54.864 206.265 55.76C204.686 56.6133 203.001 57.04 201.209 57.04C198.948 57.04 197.22 56.464 196.025 55.312C194.873 54.16 194.297 52.6027 194.297 50.64C194.297 50 194.361 49.36 194.489 48.72C194.574 47.8667 194.617 47.2907 194.617 46.992C194.617 46.3093 194.382 45.968 193.913 45.968C193.273 45.968 192.42 46.6933 191.353 48.144C190.329 49.552 189.305 51.4293 188.281 53.776C187.257 56.1227 186.425 58.5973 185.785 61.2C185.316 63.2053 184.761 64.5707 184.121 65.296C183.524 65.9787 182.564 66.32 181.241 66.32ZM213.694 66.32C211.049 66.32 208.937 65.36 207.358 63.44C205.779 61.52 204.99 59.0027 204.99 55.888C204.99 52.4747 205.779 49.2533 207.358 46.224C208.937 43.152 211.027 40.6987 213.63 38.864C216.275 36.9867 219.07 36.048 222.014 36.048C222.953 36.048 223.571 36.24 223.87 36.624C224.211 36.9653 224.489 37.6053 224.702 38.544C225.598 38.3733 226.537 38.288 227.518 38.288C229.609 38.288 230.654 39.0347 230.654 40.528C230.654 41.424 230.334 43.5573 229.694 46.928C228.713 51.8347 228.222 55.248 228.222 57.168C228.222 57.808 228.371 58.32 228.67 58.704C229.011 59.088 229.438 59.28 229.95 59.28C230.761 59.28 231.742 58.768 232.894 57.744C234.046 56.6773 235.603 54.9707 237.566 52.624C238.078 52.0267 238.654 51.728 239.294 51.728C239.849 51.728 240.275 51.984 240.574 52.496C240.915 53.008 241.086 53.712 241.086 54.608C241.086 56.3147 240.681 57.6373 239.87 58.576C238.121 60.752 236.265 62.5867 234.302 64.08C232.339 65.5733 230.441 66.32 228.606 66.32C227.198 66.32 225.897 65.8507 224.702 64.912C223.55 63.9307 222.675 62.608 222.078 60.944C219.859 64.528 217.065 66.32 213.694 66.32ZM215.998 59.856C216.937 59.856 217.833 59.3013 218.686 58.192C219.539 57.0827 220.158 55.6107 220.542 53.776L222.91 42C221.118 42.0427 219.454 42.7253 217.918 44.048C216.425 45.328 215.23 47.0347 214.334 49.168C213.438 51.3013 212.99 53.5627 212.99 55.952C212.99 57.2747 213.246 58.256 213.758 58.896C214.313 59.536 215.059 59.856 215.998 59.856ZM240.429 66.32C238.807 66.32 237.655 65.4667 236.973 63.76C236.333 62.0533 236.013 59.3227 236.013 55.568C236.013 50.0213 236.802 44.752 238.381 39.76C238.765 38.5227 239.383 37.6267 240.237 37.072C241.133 36.4747 242.37 36.176 243.949 36.176C244.802 36.176 245.399 36.2827 245.741 36.496C246.082 36.7093 246.253 37.1147 246.253 37.712C246.253 38.3947 245.933 39.9307 245.293 42.32C244.866 44.0267 244.525 45.52 244.269 46.8C244.013 48.0373 243.799 49.5947 243.629 51.472C244.781 48.144 246.146 45.328 247.725 43.024C249.346 40.72 250.989 39.0133 252.653 37.904C254.359 36.752 255.959 36.176 257.453 36.176C258.946 36.176 259.991 36.5173 260.589 37.2C261.229 37.8827 261.549 38.928 261.549 40.336C261.549 41.7013 261.143 44.176 260.333 47.76C259.991 49.296 259.757 50.448 259.629 51.216C261.037 47.632 262.594 44.7093 264.301 42.448C266.05 40.1867 267.757 38.5867 269.421 37.648C271.085 36.6667 272.621 36.176 274.029 36.176C275.394 36.176 276.418 36.5387 277.101 37.264C277.826 37.9467 278.189 38.9707 278.189 40.336C278.189 41.4453 277.954 43.536 277.485 46.608C277.058 49.2107 276.717 51.6853 276.461 54.032C276.205 56.336 276.077 58.9173 276.077 61.776C276.077 63.3973 275.735 64.5707 275.053 65.296C274.413 65.9787 273.346 66.32 271.853 66.32C270.445 66.32 269.421 65.9573 268.781 65.232C268.141 64.5067 267.821 63.4187 267.821 61.968C267.821 60.2613 268.119 57.4453 268.717 53.52C269.229 50.1067 269.485 47.9307 269.485 46.992C269.485 46.3093 269.25 45.968 268.781 45.968C268.226 45.968 267.437 46.6933 266.413 48.144C265.389 49.552 264.365 51.4293 263.341 53.776C262.317 56.1227 261.485 58.5973 260.845 61.2C260.375 63.248 259.821 64.6133 259.181 65.296C258.583 65.9787 257.602 66.32 256.237 66.32C254.829 66.32 253.762 65.6587 253.037 64.336C252.354 62.9707 252.013 61.328 252.013 59.408C252.013 57.7867 252.226 55.44 252.653 52.368C252.994 49.6373 253.165 47.8453 253.165 46.992C253.165 46.3093 252.93 45.968 252.461 45.968C251.821 45.968 251.01 46.736 250.029 48.272C249.047 49.808 248.087 51.7707 247.149 54.16C246.253 56.5493 245.527 58.896 244.973 61.2C244.503 63.2053 243.949 64.5707 243.309 65.296C242.711 65.9787 241.751 66.32 240.429 66.32Z" fill="black"/>
</g>
<defs>
<clipPath id="clip0_2453_5">
<rect width="287" height="102" fill="white"/>
</clipPath>
</defs>
</svg>
